<?xml version="1.0" encoding="utf-8"?>
<!-- Generator: Adobe Illustrator 16.0.0, SVG Export Plug-In . SVG Version: 6.00 Build 0)  -->
<!DOCTYPE svg PUBLIC "-//W3C//DTD SVG 1.1//EN" "http://www.w3.org/Graphics/SVG/1.1/DTD/svg11.dtd">
<svg version="1.1" id="Calque_1" xmlns="http://www.w3.org/2000/svg" xmlns:xlink="http://www.w3.org/1999/xlink" x="0px" y="0px"
	 width="153.008px" height="90.911px" viewBox="0 0 153.008 90.911" enable-background="new 0 0 153.008 90.911"
	 xml:space="preserve">
<polygon fill="#8D7955" points="25.365,84.653 25.365,90.789 26.659,90.789 26.659,88.249 28.975,88.249 28.975,86.952 
	26.659,86.952 26.659,85.948 30.476,85.948 30.478,84.653 "/>
<g>
	<defs>
		<rect id="SVGID_1_" width="153.008" height="90.911"/>
	</defs>
	<clipPath id="SVGID_2_">
		<use xlink:href="#SVGID_1_"  overflow="visible"/>
	</clipPath>
	<path clip-path="url(#SVGID_2_)" fill="#8D7955" d="M37.934,85.403c-0.302-0.277-0.652-0.494-1.04-0.643
		c-0.383-0.148-0.812-0.226-1.244-0.226c-0.431,0-0.861,0.077-1.244,0.226c-0.391,0.149-0.741,0.368-1.042,0.647
		c-0.301,0.278-0.543,0.618-0.72,1.009c-0.177,0.391-0.267,0.828-0.267,1.306c0,0.48,0.09,0.922,0.267,1.312
		c0.177,0.391,0.419,0.729,0.72,1.006c0.302,0.277,0.652,0.494,1.042,0.645c0.392,0.15,0.81,0.227,1.243,0.227
		c0.434,0,0.853-0.076,1.245-0.227c0.387-0.148,0.737-0.366,1.042-0.648c0.304-0.281,0.545-0.621,0.719-1.009
		c0.178-0.389,0.267-0.829,0.267-1.305c0-0.477-0.089-0.915-0.266-1.309C38.48,86.021,38.238,85.682,37.934,85.403 M37.481,88.453
		c-0.099,0.229-0.236,0.434-0.409,0.604c-0.176,0.172-0.386,0.31-0.626,0.407c-0.236,0.099-0.511,0.151-0.797,0.151
		c-0.285,0-0.561-0.053-0.796-0.151c-0.239-0.098-0.449-0.235-0.625-0.408c-0.173-0.168-0.31-0.372-0.408-0.603
		c-0.098-0.228-0.148-0.475-0.148-0.73s0.05-0.502,0.148-0.733c0.098-0.228,0.235-0.432,0.408-0.601
		c0.172-0.171,0.383-0.309,0.625-0.41c0.24-0.101,0.508-0.151,0.796-0.151c0.289,0,0.558,0.051,0.798,0.151
		c0.242,0.102,0.453,0.239,0.625,0.41c0.172,0.169,0.309,0.372,0.409,0.601c0.098,0.232,0.146,0.479,0.146,0.733
		C37.627,87.979,37.579,88.225,37.481,88.453"/>
	<polygon clip-path="url(#SVGID_2_)" fill="#8D7955" points="45.644,88.515 42.622,84.654 41.452,84.654 41.452,90.789 
		42.744,90.789 42.744,86.928 45.766,90.789 46.94,90.789 46.94,84.654 45.644,84.654 	"/>
	<path clip-path="url(#SVGID_2_)" fill="#8D7955" d="M54.844,85.657c-0.246-0.294-0.562-0.538-0.941-0.724
		c-0.384-0.187-0.847-0.28-1.375-0.28h-2.842v6.138h2.842c0.433,0,0.839-0.083,1.209-0.245c0.369-0.161,0.69-0.385,0.956-0.664
		c0.267-0.281,0.477-0.612,0.625-0.985c0.149-0.375,0.225-0.779,0.225-1.204c0-0.349-0.056-0.702-0.165-1.053
		C55.267,86.282,55.087,85.951,54.844,85.657 M54.15,88.305c-0.062,0.208-0.166,0.403-0.307,0.581
		c-0.132,0.17-0.312,0.317-0.533,0.439c-0.214,0.113-0.476,0.171-0.782,0.171h-1.547v-3.548h1.547c0.253,0,0.488,0.043,0.7,0.128
		c0.207,0.083,0.388,0.2,0.536,0.348c0.149,0.148,0.268,0.332,0.356,0.548c0.085,0.214,0.128,0.459,0.128,0.729
		C54.248,87.89,54.214,88.093,54.15,88.305"/>
	<polygon clip-path="url(#SVGID_2_)" fill="#8D7955" points="59.103,88.248 61.025,88.248 61.025,86.954 59.103,86.954 
		59.103,85.948 62.918,85.948 62.918,84.652 60.642,84.652 60.712,84.57 61.838,83.243 60.308,83.243 59.406,84.652 57.809,84.652 
		57.809,90.79 63.062,90.79 63.062,89.496 59.103,89.496 	"/>
	<polygon clip-path="url(#SVGID_2_)" fill="#8D7955" points="66.659,88.249 68.582,88.249 68.582,86.952 66.659,86.952 
		66.659,85.948 70.475,85.948 70.475,84.653 65.365,84.653 65.365,90.789 70.619,90.789 70.619,89.495 66.659,89.495 	"/>
	<polygon clip-path="url(#SVGID_2_)" fill="#8D7955" points="78.137,88.249 80.06,88.249 80.06,86.952 78.137,86.952 78.137,85.948 
		81.953,85.948 81.953,84.653 76.844,84.653 76.844,90.789 82.098,90.789 82.098,89.495 78.137,89.495 	"/>
	<polygon clip-path="url(#SVGID_2_)" fill="#8D7955" points="88.743,88.516 88.653,88.401 85.722,84.654 84.553,84.654 
		84.552,90.789 85.846,90.789 85.846,86.927 85.934,87.041 88.867,90.789 90.04,90.789 90.04,84.654 88.743,84.654 	"/>
	<rect x="97.62" y="85.393" clip-path="url(#SVGID_2_)" fill="#8D7955" width="1.294" height="5.396"/>
	<polygon clip-path="url(#SVGID_2_)" fill="#8D7955" points="102.515,85.393 102.515,86.689 105.689,86.689 105.639,86.767 
		102.997,90.79 104.551,90.79 107.594,86.146 106.978,85.393 	"/>
	<path clip-path="url(#SVGID_2_)" fill="#8D7955" d="M114.806,85.393h-1.33l-3.77,3.099l0.505,1.092h3.301v1.207h1.294v-1.207h1.145
		v-1.295h-1.145V85.393z M113.512,88.288h-1.541l1.541-1.265V88.288z"/>
	<path clip-path="url(#SVGID_2_)" fill="#8D7955" d="M122.804,87.652c-0.241-0.138-0.523-0.242-0.838-0.31
		c-0.686-0.146-1.429-0.124-2.147,0.063c-0.197,0.052-0.39,0.111-0.575,0.179l-0.125,0.044l0.064-0.116
		c0.087-0.156,0.206-0.302,0.354-0.431c0.17-0.151,0.38-0.275,0.622-0.37c0.234-0.094,0.534-0.146,0.842-0.146
		c0.189,0,0.372,0.02,0.534,0.059c0.168,0.04,0.325,0.088,0.467,0.145c0.152,0.066,0.277,0.126,0.383,0.188l0.521,0.312l0.635-1.091
		l-0.184-0.126c-0.1-0.065-0.218-0.143-0.361-0.23c-0.147-0.092-0.324-0.179-0.521-0.26c-0.188-0.077-0.414-0.146-0.67-0.205
		c-0.245-0.054-0.523-0.082-0.806-0.082c-0.466,0-0.917,0.075-1.299,0.217c-0.392,0.144-0.74,0.346-1.033,0.602
		c-0.293,0.254-0.528,0.561-0.703,0.912c-0.174,0.355-0.261,0.742-0.261,1.147c0,0.343,0.05,0.653,0.149,0.925
		c0.098,0.269,0.233,0.511,0.405,0.722c0.168,0.202,0.363,0.377,0.58,0.521c0.216,0.142,0.442,0.256,0.677,0.343
		c0.241,0.088,0.479,0.15,0.706,0.187c0.239,0.041,0.466,0.063,0.671,0.063c0.479,0,0.897-0.062,1.246-0.181
		c0.348-0.119,0.639-0.271,0.863-0.454c0.231-0.184,0.405-0.388,0.517-0.605c0.112-0.221,0.171-0.426,0.171-0.614
		c0-0.328-0.086-0.613-0.256-0.848C123.271,87.983,123.06,87.796,122.804,87.652 M122.392,89.064
		c-0.003,0.008-0.011,0.029-0.058,0.084c-0.059,0.07-0.151,0.141-0.274,0.208c-0.137,0.076-0.299,0.139-0.486,0.185
		c-0.186,0.048-0.426,0.075-0.676,0.075c-0.29,0-0.569-0.036-0.769-0.1c-0.202-0.063-0.373-0.142-0.503-0.234
		c-0.128-0.09-0.227-0.181-0.297-0.27l-0.039-0.051l0.079-0.033c0.028-0.012,0.057-0.024,0.084-0.036
		c0.165-0.068,0.323-0.125,0.483-0.172c0.162-0.051,0.343-0.093,0.553-0.128c0.19-0.033,0.402-0.05,0.61-0.05
		c0.247,0,0.466,0.023,0.633,0.069c0.164,0.045,0.305,0.102,0.417,0.168c0.117,0.071,0.172,0.133,0.197,0.171
		c0.021,0.032,0.03,0.054,0.036,0.066l0.022,0.022L122.392,89.064z"/>
	<path clip-path="url(#SVGID_2_)" fill="#8D7955" d="M100.288,56.37c-1.365,0-2.477,1.11-2.477,2.477
		c0,1.364,1.111,2.475,2.477,2.475c1.364,0,2.477-1.11,2.477-2.475C102.765,57.48,101.652,56.37,100.288,56.37"/>
	<path clip-path="url(#SVGID_2_)" fill="#8D7955" d="M43.625,61.321c1.365,0,2.476-1.109,2.476-2.476
		c0-1.365-1.111-2.476-2.476-2.476c-1.365,0-2.476,1.11-2.476,2.476C41.149,60.212,42.26,61.321,43.625,61.321"/>
	<path clip-path="url(#SVGID_2_)" fill="#8D7955" d="M31.355,47.879c-3.583-2.881-8.729-4.341-15.298-4.341H0v29.888h16.057
		c14.997,0,20.319-8.05,20.319-14.944C36.376,54.187,34.64,50.519,31.355,47.879 M16.019,66.766H7.35V50.274h8.669
		c8.09,0,12.544,2.915,12.544,8.207C28.563,63.747,23.991,66.766,16.019,66.766"/>
	<polygon clip-path="url(#SVGID_2_)" fill="#8D7955" points="72.111,63.315 59.957,43.539 51.295,43.539 51.295,73.425 
		58.608,73.425 58.608,55.056 69.751,73.425 74.047,73.425 85.388,54.993 85.388,73.425 92.7,73.425 92.7,43.539 84.229,43.539 	"/>
	<path clip-path="url(#SVGID_2_)" fill="#8D7955" d="M136.519,63.417c-2.443,2.741-5.458,3.962-9.771,3.962
		c-7.026,0-11.393-3.453-11.393-9.013c0-5.512,4.366-8.937,11.393-8.937c4.149,0,6.972,1.055,9.444,3.525l1.11,1.111l4.59-5.265
		l-1.064-0.967c-3.887-3.534-8.386-5.181-14.157-5.181c-11.172,0-18.974,6.462-18.974,15.712c0,9.273,7.802,15.751,18.974,15.751
		c6.152,0,10.826-1.807,14.706-5.689l0.992-0.99l-4.767-5.236L136.519,63.417z"/>
	<path clip-path="url(#SVGID_2_)" fill="#8D7955" d="M81.028,6.467L81.028,6.467c-0.104-1.483-0.238-3.511-0.298-4.203L80.714,2.03
		l-1.6-1.577c-0.04,0.134-0.079,0.264-0.118,0.392c-0.011,0.036-0.023,0.072-0.034,0.112c-0.004,0.007-0.006,0.014-0.008,0.021
		c-0.192,0.605-0.544,1.637-0.985,2.583c-0.14,0.293-0.331,0.721-0.38,0.835c0.408,0.23,2.076,1.193,3.453,2.264L81.028,6.467z"/>
	<path clip-path="url(#SVGID_2_)" fill="#8D7955" d="M83.902,30.615c0.073,0.055,0.15,0.109,0.233,0.162
		c0.166,0.107,0.352,0.21,0.56,0.308c0.207,0.098,0.438,0.191,0.691,0.278c0,0,0.109-0.042,0.277-0.108
		c0.194-0.076,0.467-0.183,0.738-0.293l0.483-0.132c-0.877-0.754-3.058-1.814-4.233-2.358l0.126,0.347
		C82.856,29.331,83.098,30.014,83.902,30.615"/>
	<path clip-path="url(#SVGID_2_)" fill="#8D7955" d="M54.575,38.054l33.813,0.125c0,0,0.001-2.817-0.002-2.833
		c0,0-9.582-2.837-12.631-5.511c-0.758-0.644-1.382-1.433-1.891-2.247c-0.037-0.058-0.071-0.113-0.106-0.171
		c-0.003-0.005-0.006-0.009-0.008-0.013c-0.731-1.187-1.077-2.169-1.077-2.169c-0.189-0.482-0.783-2.388-0.783-2.388l0.456,0.053
		c0.138,0.338,0.411,0.948,0.844,1.663c0.388,0.16,0.82,0.294,1.317,0.388c0,0,1.331,0.415,2.375-0.446c0,0,3.054,1.322,5.257,3.005
		c0.08,0.11,0.268,0.381,0.434,0.746l0.043,0.117c1.321,0.46,4.057,1.463,5.112,2.231l0.714-0.158
		c0.724-0.289,1.7-0.861,2.146-1.944l-0.125-1.667c0,0,0.385-0.863,1.12-1.709c0,0-0.491-1.016-1.464-1.648
		c0,0-1.486-3.161-3.272-5.602c-1.785-2.442-1.913-3.366-1.707-5.28c0,0-0.802-1.502-2.344-2.15c0,0-0.326-1.08-1.111-2.346
		c-0.132-0.102-0.29-0.221-0.453-0.342c-0.97-0.704-2.281-1.548-3.418-1.88l-0.298-0.093l-0.255-1.392l-0.154-0.812
		C76.842,1.928,76.892,0,76.892,0s-1.732,0.509-1.982,1.027c-0.199,0.413-0.502,1.081-0.811,1.797
		c0.135,0.836,0.13,1.962-0.551,2.968c-0.075,0.083-2.112,1.976-1.937,3.968l-0.712,0.101c-0.023-0.114-0.529-2.811,1.183-4.843
		c0.423-0.504,0.616-0.936,0.594-1.292l-0.137,0.04L72.397,3.8l-0.768,0.093c-1.885,0.212-3.701,0.679-5.415,1.372
		c0.14,0.347,0.306,0.711,0.538,1.106c1.604,2.723,0.635,4.82,0.593,4.908l-1.166,2.436l0.487-2.656
		c0.083-0.452,0.24-2.065-1.21-3.841c-0.32-0.391-0.508-0.859-0.613-1.348c-1.643,0.815-3.166,1.863-4.535,3.125
		c0.28,0.531,0.67,1.062,1.22,1.537c2.748,2.376,3.006,6.137,3.02,7.234l-0.715,0.067c-0.007-0.046-0.844-4.58-4.061-6.557
		c-0.369-0.235-0.679-0.483-0.96-0.739c-0.785,0.903-1.496,1.895-2.13,2.966l0.73,2.326c0.194,0.62,1.061,2.742,4.033,3.999
		c2.664,1.129,3.441,5.406,3.472,5.586l-0.704,0.15c-0.005-0.023-0.582-2.191-3.683-4.107c-3.654-2.257-3.817-5.376-3.822-5.507
		l-0.091-2.33c-1.506,2.581-2.546,5.634-2.976,9.128c0.55,0.56,1.285,1.085,2.265,1.382c3.473,1.054,5.242,4.386,5.702,5.382
		l-0.626,0.352c-0.025-0.038-2.635-3.84-6.378-4.34c-0.425-0.063-0.803-0.162-1.159-0.278L53.41,26.4
		c-0.004,2.841,0.365,5.643,1.166,8.946L54.575,38.054z M85.72,25.682c0.083-0.154,0.188-0.294,0.279-0.417
		c0.038-0.051,0.074-0.099,0.107-0.146l0.098-0.138l0.414,0.289c0.177,0.124,0.346,0.242,0.516,0.358
		c0.412,0.283,0.638,0.65,0.683,1.123l0.037,0.391l-0.312-0.241c-0.271-0.212-0.583-0.25-0.91-0.29l-0.113-0.014
		c-0.146-0.019-0.295-0.038-0.441-0.084c-0.212-0.066-0.35-0.178-0.413-0.331C85.622,26.079,85.599,25.91,85.72,25.682
		 M78.021,15.287l2.292-0.674l1.047,1.113l-0.122,1.105l-0.758-0.946l-0.47-0.619l-0.016,0.012l-0.004-0.004l-0.146,0.108
		l-1.138,0.8l0.02,0.032l-0.045,0.034l0.12,0.19l-0.902-0.217L78.021,15.287z"/>
	<path clip-path="url(#SVGID_2_)" fill="#8D7955" d="M151.148,46.286c0-0.61-0.418-1.005-1.063-1.005h-1.893v3.233h0.687v-1.234
		h0.907l0.601,1.234h0.771l-0.643-1.3C150.92,47.063,151.148,46.733,151.148,46.286 M150.085,46.593h-1.206v-0.63h1.206
		c0.383,0,0.383,0.217,0.383,0.299S150.468,46.593,150.085,46.593"/>
	<path clip-path="url(#SVGID_2_)" fill="#8D7955" d="M149.551,43.439c-1.907,0-3.458,1.551-3.458,3.458
		c0,1.907,1.551,3.459,3.458,3.459c1.906,0,3.458-1.552,3.458-3.459C153.009,44.991,151.457,43.439,149.551,43.439 M149.551,49.606
		c-1.493,0-2.708-1.215-2.708-2.709c0-1.493,1.215-2.708,2.708-2.708c1.492,0,2.708,1.215,2.708,2.708
		C152.259,48.392,151.043,49.606,149.551,49.606"/>
</g>
</svg>
